{"ticks_per_beat": 1024, "tempo": 521739, "program": 0, "events": [{"start": 0, "end": 4094, "note": 47, "vel": 102, "ch": 1}, {"start": 0, "end": 4094, "note": 54, "vel": 102, "ch": 1}, {"start": 0, "end": 4094, "note": 59, "vel": 102, "ch": 1}, {"start": 0, "end": 4094, "note": 62, "vel": 102, "ch": 1}, {"start": 0, "end": 4094, "note": 47, "vel": 102, "ch": 2}, {"start": 4096, "end": 8190, "note": 45, "vel": 102, "ch": 1}, {"start": 4096, "end": 8190, "note": 52, "vel": 102, "ch": 1}, {"start": 4096, "end": 8190, "note": 61, "vel": 102, "ch": 1}, {"start": 4096, "end": 8190, "note": 64, "vel": 102, "ch": 1}, {"start": 4096, "end": 8190, "note": 45, "vel": 102, "ch": 2}, {"start": 8192, "end": 12286, "note": 40, "vel": 102, "ch": 1}, {"start": 8192, "end": 12286, "note": 55, "vel": 102, "ch": 1}, {"start": 8192, "end": 12286, "note": 59, "vel": 102, "ch": 1}, {"start": 8192, "end": 12286, "note": 64, "vel": 102, "ch": 1}, {"start": 8192, "end": 12286, "note": 52, "vel": 102, "ch": 2}, {"start": 12288, "end": 14334, "note": 50, "vel": 102, "ch": 1}, {"start": 12288, "end": 14334, "note": 57, "vel": 102, "ch": 1}, {"start": 12288, "end": 14334, "note": 62, "vel": 102, "ch": 1}, {"start": 12288, "end": 14334, "note": 66, "vel": 102, "ch": 1}, {"start": 12288, "end": 14334, "note": 50, "vel": 102, "ch": 2}, {"start": 14336, "end": 16382, "note": 49, "vel": 102, "ch": 1}, {"start": 14336, "end": 16382, "note": 54, "vel": 102, "ch": 1}, {"start": 14336, "end": 16382, "note": 57, "vel": 102, "ch": 1}, {"start": 14336, "end": 16382, "note": 62, "vel": 102, "ch": 1}, {"start": 14336, "end": 16382, "note": 49, "vel": 102, "ch": 2}, {"start": 18432, "end": 18942, "note": 73, "vel": 127, "ch": 0}, {"start": 18944, "end": 19454, "note": 74, "vel": 127, "ch": 0}, {"start": 19456, "end": 19966, "note": 76, "vel": 127, "ch": 0}, {"start": 19968, "end": 20478, "note": 74, "vel": 127, "ch": 0}, {"start": 16384, "end": 20478, "note": 47, "vel": 102, "ch": 1}, {"start": 16384, "end": 20478, "note": 54, "vel": 102, "ch": 1}, {"start": 16384, "end": 20478, "note": 59, "vel": 102, "ch": 1}, {"start": 16384, "end": 20478, "note": 62, "vel": 102, "ch": 1}, {"start": 16384, "end": 20478, "note": 47, "vel": 102, "ch": 2}, {"start": 20480, "end": 24574, "note": 45, "vel": 102, "ch": 1}, {"start": 20480, "end": 24574, "note": 52, "vel": 102, "ch": 1}, {"start": 20480, "end": 24574, "note": 61, "vel": 102, "ch": 1}, {"start": 20480, "end": 24574, "note": 64, "vel": 102, "ch": 1}, {"start": 20480, "end": 24574, "note": 45, "vel": 102, "ch": 2}, {"start": 24576, "end": 28670, "note": 40, "vel": 102, "ch": 1}, {"start": 24576, "end": 28670, "note": 55, "vel": 102, "ch": 1}, {"start": 24576, "end": 28670, "note": 59, "vel": 102, "ch": 1}, {"start": 24576, "end": 28670, "note": 64, "vel": 102, "ch": 1}, {"start": 24576, "end": 28670, "note": 52, "vel": 102, "ch": 2}, {"start": 28672, "end": 32766, "note": 43, "vel": 102, "ch": 1}, {"start": 28672, "end": 32766, "note": 50, "vel": 102, "ch": 1}, {"start": 28672, "end": 32766, "note": 59, "vel": 102, "ch": 1}, {"start": 28672, "end": 32766, "note": 67, "vel": 102, "ch": 1}, {"start": 28672, "end": 32766, "note": 43, "vel": 102, "ch": 2}, {"start": 34816, "end": 35326, "note": 73, "vel": 127, "ch": 0}, {"start": 35328, "end": 35838, "note": 74, "vel": 127, "ch": 0}, {"start": 35840, "end": 36350, "note": 76, "vel": 127, "ch": 0}, {"start": 36352, "end": 36862, "note": 74, "vel": 127, "ch": 0}, {"start": 32768, "end": 36862, "note": 47, "vel": 102, "ch": 1}, {"start": 32768, "end": 36862, "note": 54, "vel": 102, "ch": 1}, {"start": 32768, "end": 36862, "note": 59, "vel": 102, "ch": 1}, {"start": 32768, "end": 36862, "note": 62, "vel": 102, "ch": 1}, {"start": 32768, "end": 36862, "note": 47, "vel": 102, "ch": 2}, {"start": 36864, "end": 40958, "note": 45, "vel": 102, "ch": 1}, {"start": 36864, "end": 40958, "note": 52, "vel": 102, "ch": 1}, {"start": 36864, "end": 40958, "note": 61, "vel": 102, "ch": 1}, {"start": 36864, "end": 40958, "note": 64, "vel": 102, "ch": 1}, {"start": 36864, "end": 40958, "note": 45, "vel": 102, "ch": 2}, {"start": 40960, "end": 45054, "note": 40, "vel": 102, "ch": 1}, {"start": 40960, "end": 45054, "note": 55, "vel": 102, "ch": 1}, {"start": 40960, "end": 45054, "note": 59, "vel": 102, "ch": 1}, {"start": 40960, "end": 45054, "note": 64, "vel": 102, "ch": 1}, {"start": 40960, "end": 45054, "note": 52, "vel": 102, "ch": 2}, {"start": 45056, "end": 47102, "note": 50, "vel": 102, "ch": 1}, {"start": 45056, "end": 47102, "note": 57, "vel": 102, "ch": 1}, {"start": 45056, "end": 47102, "note": 62, "vel": 102, "ch": 1}, {"start": 45056, "end": 47102, "note": 66, "vel": 102, "ch": 1}, {"start": 45056, "end": 47102, "note": 50, "vel": 102, "ch": 2}, {"start": 48128, "end": 49150, "note": 78, "vel": 127, "ch": 0}, {"start": 47104, "end": 49150, "note": 49, "vel": 102, "ch": 1}, {"start": 47104, "end": 49150, "note": 54, "vel": 102, "ch": 1}, {"start": 47104, "end": 49150, "note": 57, "vel": 102, "ch": 1}, {"start": 47104, "end": 49150, "note": 62, "vel": 102, "ch": 1}, {"start": 47104, "end": 49150, "note": 49, "vel": 102, "ch": 2}, {"start": 49152, "end": 50686, "note": 74, "vel": 127, "ch": 0}, {"start": 51200, "end": 51710, "note": 74, "vel": 127, "ch": 0}, {"start": 51712, "end": 52222, "note": 76, "vel": 127, "ch": 0}, {"start": 52224, "end": 53246, "note": 78, "vel": 127, "ch": 0}, {"start": 49152, "end": 53246, "note": 47, "vel": 102, "ch": 1}, {"start": 49152, "end": 53246, "note": 54, "vel": 102, "ch": 1}, {"start": 49152, "end": 53246, "note": 59, "vel": 102, "ch": 1}, {"start": 49152, "end": 53246, "note": 62, "vel": 102, "ch": 1}, {"start": 49152, "end": 53246, "note": 47, "vel": 102, "ch": 2}, {"start": 53248, "end": 54270, "note": 73, "vel": 127, "ch": 0}, {"start": 55296, "end": 55806, "note": 69, "vel": 127, "ch": 0}, {"start": 55808, "end": 56318, "note": 69, "vel": 127, "ch": 0}, {"start": 56320, "end": 57342, "note": 78, "vel": 127, "ch": 0}, {"start": 53248, "end": 57342, "note": 45, "vel": 102, "ch": 1}, {"start": 53248, "end": 57342, "note": 52, "vel": 102, "ch": 1}, {"start": 53248, "end": 57342, "note": 61, "vel": 102, "ch": 1}, {"start": 53248, "end": 57342, "note": 64, "vel": 102, "ch": 1}, {"start": 53248, "end": 57342, "note": 45, "vel": 102, "ch": 2}, {"start": 57344, "end": 58366, "note": 76, "vel": 127, "ch": 0}, {"start": 59392, "end": 59902, "note": 74, "vel": 127, "ch": 0}, {"start": 59904, "end": 60414, "note": 76, "vel": 127, "ch": 0}, {"start": 60416, "end": 61438, "note": 78, "vel": 127, "ch": 0}, {"start": 57344, "end": 61438, "note": 40, "vel": 102, "ch": 1}, {"start": 57344, "end": 61438, "note": 55, "vel": 102, "ch": 1}, {"start": 57344, "end": 61438, "note": 59, "vel": 102, "ch": 1}, {"start": 57344, "end": 61438, "note": 64, "vel": 102, "ch": 1}, {"start": 57344, "end": 61438, "note": 52, "vel": 102, "ch": 2}, {"start": 61440, "end": 61950, "note": 74, "vel": 127, "ch": 0}, {"start": 61952, "end": 62462, "note": 74, "vel": 127, "ch": 0}, {"start": 62464, "end": 62974, "note": 74, "vel": 127, "ch": 0}, {"start": 62976, "end": 63486, "note": 74, "vel": 127, "ch": 0}, {"start": 63488, "end": 64510, "note": 76, "vel": 127, "ch": 0}, {"start": 64512, "end": 65534, "note": 74, "vel": 127, "ch": 0}, {"start": 61440, "end": 65534, "note": 43, "vel": 102, "ch": 1}, {"start": 61440, "end": 65534, "note": 50, "vel": 102, "ch": 1}, {"start": 61440, "end": 65534, "note": 59, "vel": 102, "ch": 1}, {"start": 61440, "end": 65534, "note": 67, "vel": 102, "ch": 1}, {"start": 61440, "end": 65534, "note": 43, "vel": 102, "ch": 2}, {"start": 65536, "end": 66558, "note": 71, "vel": 127, "ch": 0}, {"start": 67584, "end": 68094, "note": 74, "vel": 127, "ch": 0}, {"start": 68096, "end": 68606, "note": 76, "vel": 127, "ch": 0}, {"start": 68608, "end": 69630, "note": 78, "vel": 127, "ch": 0}, {"start": 65536, "end": 69630, "note": 47, "vel": 102, "ch": 1}, {"start": 65536, "end": 69630, "note": 54, "vel": 102, "ch": 1}, {"start": 65536, "end": 69630, "note": 59, "vel": 102, "ch": 1}, {"start": 65536, "end": 69630, "note": 62, "vel": 102, "ch": 1}, {"start": 65536, "end": 69630, "note": 47, "vel": 102, "ch": 2}, {"start": 69632, "end": 70654, "note": 73, "vel": 127, "ch": 0}, {"start": 71680, "end": 72702, "note": 69, "vel": 127, "ch": 0}, {"start": 72704, "end": 73726, "note": 78, "vel": 127, "ch": 0}, {"start": 69632, "end": 73726, "note": 45, "vel": 102, "ch": 1}, {"start": 69632, "end": 73726, "note": 52, "vel": 102, "ch": 1}, {"start": 69632, "end": 73726, "note": 61, "vel": 102, "ch": 1}, {"start": 69632, "end": 73726, "note": 64, "vel": 102, "ch": 1}, {"start": 69632, "end": 73726, "note": 45, "vel": 102, "ch": 2}, {"start": 73728, "end": 74238, "note": 76, "vel": 127, "ch": 0}, {"start": 74240, "end": 75262, "note": 76, "vel": 127, "ch": 0}, {"start": 75776, "end": 76286, "note": 74, "vel": 127, "ch": 0}, {"start": 76288, "end": 76798, "note": 76, "vel": 127, "ch": 0}, {"start": 76800, "end": 77822, "note": 78, "vel": 127, "ch": 0}, {"start": 73728, "end": 77822, "note": 40, "vel": 102, "ch": 1}, {"start": 73728, "end": 77822, "note": 55, "vel": 102, "ch": 1}, {"start": 73728, "end": 77822, "note": 59, "vel": 102, "ch": 1}, {"start": 73728, "end": 77822, "note": 64, "vel": 102, "ch": 1}, {"start": 73728, "end": 77822, "note": 52, "vel": 102, "ch": 2}, {"start": 77824, "end": 78846, "note": 79, "vel": 127, "ch": 0}, {"start": 78848, "end": 79870, "note": 78, "vel": 127, "ch": 0}, {"start": 77824, "end": 79870, "note": 43, "vel": 102, "ch": 1}, {"start": 77824, "end": 79870, "note": 50, "vel": 102, "ch": 1}, {"start": 77824, "end": 79870, "note": 59, "vel": 102, "ch": 1}, {"start": 77824, "end": 79870, "note": 67, "vel": 102, "ch": 1}, {"start": 77824, "end": 79870, "note": 43, "vel": 102, "ch": 2}, {"start": 79872, "end": 80894, "note": 76, "vel": 127, "ch": 0}, {"start": 80896, "end": 81918, "note": 74, "vel": 127, "ch": 0}, {"start": 79872, "end": 81918, "note": 45, "vel": 102, "ch": 1}, {"start": 79872, "end": 81918, "note": 52, "vel": 102, "ch": 1}, {"start": 79872, "end": 81918, "note": 61, "vel": 102, "ch": 1}, {"start": 79872, "end": 81918, "note": 64, "vel": 102, "ch": 1}, {"start": 79872, "end": 81918, "note": 45, "vel": 102, "ch": 2}, {"start": 81920, "end": 82942, "note": 71, "vel": 127, "ch": 0}, {"start": 82944, "end": 83966, "note": 69, "vel": 127, "ch": 0}, {"start": 83968, "end": 86014, "note": 66, "vel": 127, "ch": 0}, {"start": 81920, "end": 86014, "note": 47, "vel": 102, "ch": 1}, {"start": 81920, "end": 86014, "note": 54, "vel": 102, "ch": 1}, {"start": 81920, "end": 86014, "note": 59, "vel": 102, "ch": 1}, {"start": 81920, "end": 86014, "note": 62, "vel": 102, "ch": 1}, {"start": 81920, "end": 86014, "note": 47, "vel": 102, "ch": 2}, {"start": 86016, "end": 86526, "note": 66, "vel": 127, "ch": 0}, {"start": 86528, "end": 87038, "note": 69, "vel": 127, "ch": 0}, {"start": 87040, "end": 87550, "note": 69, "vel": 127, "ch": 0}, {"start": 87552, "end": 88062, "note": 71, "vel": 127, "ch": 0}, {"start": 88064, "end": 89086, "note": 66, "vel": 127, "ch": 0}, {"start": 89088, "end": 89598, "note": 64, "vel": 127, "ch": 0}, {"start": 89600, "end": 90110, "note": 62, "vel": 127, "ch": 0}, {"start": 86016, "end": 90110, "note": 45, "vel": 102, "ch": 1}, {"start": 86016, "end": 90110, "note": 52, "vel": 102, "ch": 1}, {"start": 86016, "end": 90110, "note": 61, "vel": 102, "ch": 1}, {"start": 86016, "end": 90110, "note": 64, "vel": 102, "ch": 1}, {"start": 86016, "end": 90110, "note": 45, "vel": 102, "ch": 2}, {"start": 90112, "end": 90622, "note": 66, "vel": 127, "ch": 0}, {"start": 90624, "end": 91134, "note": 69, "vel": 127, "ch": 0}, {"start": 91136, "end": 91646, "note": 69, "vel": 127, "ch": 0}, {"start": 91648, "end": 92158, "note": 71, "vel": 127, "ch": 0}, {"start": 92160, "end": 93182, "note": 66, "vel": 127, "ch": 0}, {"start": 93184, "end": 94206, "note": 64, "vel": 127, "ch": 0}, {"start": 90112, "end": 94206, "note": 40, "vel": 102, "ch": 1}, {"start": 90112, "end": 94206, "note": 55, "vel": 102, "ch": 1}, {"start": 90112, "end": 94206, "note": 59, "vel": 102, "ch": 1}, {"start": 90112, "end": 94206, "note": 64, "vel": 102, "ch": 1}, {"start": 90112, "end": 94206, "note": 52, "vel": 102, "ch": 2}, {"start": 94208, "end": 94718, "note": 64, "vel": 127, "ch": 0}, {"start": 94720, "end": 95230, "note": 62, "vel": 127, "ch": 0}, {"start": 95232, "end": 95742, "note": 64, "vel": 127, "ch": 0}, {"start": 95744, "end": 96254, "note": 62, "vel": 127, "ch": 0}, {"start": 96256, "end": 96766, "note": 64, "vel": 127, "ch": 0}, {"start": 96768, "end": 97278, "note": 62, "vel": 127, "ch": 0}, {"start": 97280, "end": 97790, "note": 64, "vel": 127, "ch": 0}, {"start": 97792, "end": 98302, "note": 66, "vel": 127, "ch": 0}, {"start": 94208, "end": 98302, "note": 43, "vel": 102, "ch": 1}, {"start": 94208, "end": 98302, "note": 50, "vel": 102, "ch": 1}, {"start": 94208, "end": 98302, "note": 59, "vel": 102, "ch": 1}, {"start": 94208, "end": 98302, "note": 67, "vel": 102, "ch": 1}, {"start": 94208, "end": 98302, "note": 43, "vel": 102, "ch": 2}, {"start": 98304, "end": 99326, "note": 62, "vel": 127, "ch": 0}, {"start": 99328, "end": 99838, "note": 66, "vel": 127, "ch": 0}, {"start": 99840, "end": 100350, "note": 69, "vel": 127, "ch": 0}, {"start": 100352, "end": 100862, "note": 66, "vel": 127, "ch": 0}, {"start": 100864, "end": 101374, "note": 69, "vel": 127, "ch": 0}, {"start": 101376, "end": 101886, "note": 71, "vel": 127, "ch": 0}, {"start": 101888, "end": 102398, "note": 69, "vel": 127, "ch": 0}, {"start": 98304, "end": 102398, "note": 47, "vel": 102, "ch": 1}, {"start": 98304, "end": 102398, "note": 54, "vel": 102, "ch": 1}, {"start": 98304, "end": 102398, "note": 59, "vel": 102, "ch": 1}, {"start": 98304, "end": 102398, "note": 62, "vel": 102, "ch": 1}, {"start": 98304, "end": 102398, "note": 47, "vel": 102, "ch": 2}, {"start": 102400, "end": 102910, "note": 71, "vel": 127, "ch": 0}, {"start": 102912, "end": 103422, "note": 69, "vel": 127, "ch": 0}, {"start": 103424, "end": 103934, "note": 71, "vel": 127, "ch": 0}, {"start": 103936, "end": 104446, "note": 73, "vel": 127, "ch": 0}, {"start": 104448, "end": 104958, "note": 73, "vel": 127, "ch": 0}, {"start": 104960, "end": 105470, "note": 74, "vel": 127, "ch": 0}, {"start": 105472, "end": 105982, "note": 74, "vel": 127, "ch": 0}, {"start": 105984, "end": 106494, "note": 76, "vel": 127, "ch": 0}, {"start": 102400, "end": 106494, "note": 45, "vel": 102, "ch": 1}, {"start": 102400, "end": 106494, "note": 52, "vel": 102, "ch": 1}, {"start": 102400, "end": 106494, "note": 61, "vel": 102, "ch": 1}, {"start": 102400, "end": 106494, "note": 64, "vel": 102, "ch": 1}, {"start": 102400, "end": 106494, "note": 45, "vel": 102, "ch": 2}, {"start": 106496, "end": 107518, "note": 74, "vel": 127, "ch": 0}, {"start": 107520, "end": 108542, "note": 71, "vel": 127, "ch": 0}, {"start": 108544, "end": 109054, "note": 67, "vel": 127, "ch": 0}, {"start": 109056, "end": 109566, "note": 69, "vel": 127, "ch": 0}, {"start": 109568, "end": 110590, "note": 71, "vel": 127, "ch": 0}, {"start": 106496, "end": 110590, "note": 40, "vel": 102, "ch": 1}, {"start": 106496, "end": 110590, "note": 55, "vel": 102, "ch": 1}, {"start": 106496, "end": 110590, "note": 59, "vel": 102, "ch": 1}, {"start": 106496, "end": 110590, "note": 64, "vel": 102, "ch": 1}, {"start": 106496, "end": 110590, "note": 52, "vel": 102, "ch": 2}, {"start": 110592, "end": 111614, "note": 69, "vel": 127, "ch": 0}, {"start": 111616, "end": 112638, "note": 66, "vel": 127, "ch": 0}, {"start": 110592, "end": 112638, "note": 43, "vel": 102, "ch": 1}, {"start": 110592, "end": 112638, "note": 50, "vel": 102, "ch": 1}, {"start": 110592, "end": 112638, "note": 59, "vel": 102, "ch": 1}, {"start": 110592, "end": 112638, "note": 67, "vel": 102, "ch": 1}, {"start": 110592, "end": 112638, "note": 43, "vel": 102, "ch": 2}, {"start": 112640, "end": 113150, "note": 62, "vel": 127, "ch": 0}, {"start": 113152, "end": 113662, "note": 64, "vel": 127, "ch": 0}, {"start": 113664, "end": 114686, "note": 66, "vel": 127, "ch": 0}, {"start": 112640, "end": 114686, "note": 45, "vel": 102, "ch": 1}, {"start": 112640, "end": 114686, "note": 52, "vel": 102, "ch": 1}, {"start": 112640, "end": 114686, "note": 61, "vel": 102, "ch": 1}, {"start": 112640, "end": 114686, "note": 64, "vel": 102, "ch": 1}, {"start": 112640, "end": 114686, "note": 45, "vel": 102, "ch": 2}, {"start": 114688, "end": 118782, "note": 59, "vel": 127, "ch": 0}, {"start": 114688, "end": 118782, "note": 47, "vel": 102, "ch": 1}, {"start": 114688, "end": 118782, "note": 54, "vel": 102, "ch": 1}, {"start": 114688, "end": 118782, "note": 59, "vel": 102, "ch": 1}, {"start": 114688, "end": 118782, "note": 62, "vel": 102, "ch": 1}, {"start": 114688, "end": 118782, "note": 47, "vel": 102, "ch": 2}, {"start": 119296, "end": 119806, "note": 66, "vel": 127, "ch": 0}, {"start": 119808, "end": 120318, "note": 69, "vel": 127, "ch": 0}, {"start": 120320, "end": 120830, "note": 71, "vel": 127, "ch": 0}, {"start": 120832, "end": 121342, "note": 71, "vel": 127, "ch": 0}, {"start": 121344, "end": 121854, "note": 69, "vel": 127, "ch": 0}, {"start": 121856, "end": 122366, "note": 69, "vel": 127, "ch": 0}, {"start": 122368, "end": 122878, "note": 71, "vel": 127, "ch": 0}, {"start": 118784, "end": 122878, "note": 45, "vel": 102, "ch": 1}, {"start": 118784, "end": 122878, "note": 52, "vel": 102, "ch": 1}, {"start": 118784, "end": 122878, "note": 61, "vel": 102, "ch": 1}, {"start": 118784, "end": 122878, "note": 64, "vel": 102, "ch": 1}, {"start": 118784, "end": 122878, "note": 45, "vel": 102, "ch": 2}, {"start": 122880, "end": 123902, "note": 69, "vel": 127, "ch": 0}, {"start": 123904, "end": 124926, "note": 66, "vel": 127, "ch": 0}, {"start": 124928, "end": 125438, "note": 62, "vel": 127, "ch": 0}, {"start": 125440, "end": 125950, "note": 64, "vel": 127, "ch": 0}, {"start": 125952, "end": 126974, "note": 66, "vel": 127, "ch": 0}, {"start": 122880, "end": 126974, "note": 40, "vel": 102, "ch": 1}, {"start": 122880, "end": 126974, "note": 55, "vel": 102, "ch": 1}, {"start": 122880, "end": 126974, "note": 59, "vel": 102, "ch": 1}, {"start": 122880, "end": 126974, "note": 64, "vel": 102, "ch": 1}, {"start": 122880, "end": 126974, "note": 52, "vel": 102, "ch": 2}, {"start": 126976, "end": 127998, "note": 64, "vel": 127, "ch": 0}, {"start": 128000, "end": 129022, "note": 62, "vel": 127, "ch": 0}, {"start": 129024, "end": 129534, "note": 62, "vel": 127, "ch": 0}, {"start": 129536, "end": 130046, "note": 64, "vel": 127, "ch": 0}, {"start": 130048, "end": 131070, "note": 66, "vel": 127, "ch": 0}, {"start": 126976, "end": 131070, "note": 43, "vel": 102, "ch": 1}, {"start": 126976, "end": 131070, "note": 50, "vel": 102, "ch": 1}, {"start": 126976, "end": 131070, "note": 59, "vel": 102, "ch": 1}, {"start": 126976, "end": 131070, "note": 67, "vel": 102, "ch": 1}, {"start": 126976, "end": 131070, "note": 43, "vel": 102, "ch": 2}, {"start": 131072, "end": 132094, "note": 64, "vel": 127, "ch": 0}, {"start": 132096, "end": 133118, "note": 62, "vel": 127, "ch": 0}, {"start": 133120, "end": 133630, "note": 62, "vel": 127, "ch": 0}, {"start": 133632, "end": 134142, "note": 64, "vel": 127, "ch": 0}, {"start": 134144, "end": 135166, "note": 66, "vel": 127, "ch": 0}, {"start": 131072, "end": 135166, "note": 47, "vel": 102, "ch": 1}, {"start": 131072, "end": 135166, "note": 54, "vel": 102, "ch": 1}, {"start": 131072, "end": 135166, "note": 59, "vel": 102, "ch": 1}, {"start": 131072, "end": 135166, "note": 62, "vel": 102, "ch": 1}, {"start": 131072, "end": 135166, "note": 47, "vel": 102, "ch": 2}, {"start": 135168, "end": 136190, "note": 64, "vel": 127, "ch": 0}, {"start": 136192, "end": 136702, "note": 62, "vel": 127, "ch": 0}, {"start": 136704, "end": 137726, "note": 61, "vel": 127, "ch": 0}, {"start": 137728, "end": 138238, "note": 61, "vel": 127, "ch": 0}, {"start": 138240, "end": 138750, "note": 62, "vel": 127, "ch": 0}, {"start": 138752, "end": 139262, "note": 64, "vel": 127, "ch": 0}, {"start": 135168, "end": 139262, "note": 45, "vel": 102, "ch": 1}, {"start": 135168, "end": 139262, "note": 52, "vel": 102, "ch": 1}, {"start": 135168, "end": 139262, "note": 61, "vel": 102, "ch": 1}, {"start": 135168, "end": 139262, "note": 64, "vel": 102, "ch": 1}, {"start": 135168, "end": 139262, "note": 45, "vel": 102, "ch": 2}, {"start": 139264, "end": 140286, "note": 62, "vel": 127, "ch": 0}, {"start": 140288, "end": 141310, "note": 59, "vel": 127, "ch": 0}, {"start": 141312, "end": 141822, "note": 67, "vel": 127, "ch": 0}, {"start": 141824, "end": 142334, "note": 69, "vel": 127, "ch": 0}, {"start": 142336, "end": 143358, "note": 71, "vel": 127, "ch": 0}, {"start": 139264, "end": 143358, "note": 40, "vel": 102, "ch": 1}, {"start": 139264, "end": 143358, "note": 55, "vel": 102, "ch": 1}, {"start": 139264, "end": 143358, "note": 59, "vel": 102, "ch": 1}, {"start": 139264, "end": 143358, "note": 64, "vel": 102, "ch": 1}, {"start": 139264, "end": 143358, "note": 52, "vel": 102, "ch": 2}, {"start": 143360, "end": 144382, "note": 69, "vel": 127, "ch": 0}, {"start": 144384, "end": 145406, "note": 66, "vel": 127, "ch": 0}, {"start": 143360, "end": 145406, "note": 43, "vel": 102, "ch": 1}, {"start": 143360, "end": 145406, "note": 50, "vel": 102, "ch": 1}, {"start": 143360, "end": 145406, "note": 59, "vel": 102, "ch": 1}, {"start": 143360, "end": 145406, "note": 67, "vel": 102, "ch": 1}, {"start": 143360, "end": 145406, "note": 43, "vel": 102, "ch": 2}, {"start": 145408, "end": 145918, "note": 62, "vel": 127, "ch": 0}, {"start": 145920, "end": 146430, "note": 64, "vel": 127, "ch": 0}, {"start": 146432, "end": 146942, "note": 66, "vel": 127, "ch": 0}, {"start": 146944, "end": 147454, "note": 67, "vel": 127, "ch": 0}, {"start": 145408, "end": 147454, "note": 45, "vel": 102, "ch": 1}, {"start": 145408, "end": 147454, "note": 52, "vel": 102, "ch": 1}, {"start": 145408, "end": 147454, "note": 61, "vel": 102, "ch": 1}, {"start": 145408, "end": 147454, "note": 64, "vel": 102, "ch": 1}, {"start": 145408, "end": 147454, "note": 45, "vel": 102, "ch": 2}, {"start": 147456, "end": 151038, "note": 69, "vel": 127, "ch": 0}, {"start": 151040, "end": 151294, "note": 67, "vel": 127, "ch": 0}, {"start": 151296, "end": 151550, "note": 66, "vel": 127, "ch": 0}, {"start": 147456, "end": 151550, "note": 47, "vel": 102, "ch": 1}, {"start": 147456, "end": 151550, "note": 54, "vel": 102, "ch": 1}, {"start": 147456, "end": 151550, "note": 59, "vel": 102, "ch": 1}, {"start": 147456, "end": 151550, "note": 62, "vel": 102, "ch": 1}, {"start": 147456, "end": 151550, "note": 47, "vel": 102, "ch": 2}, {"start": 151552, "end": 153086, "note": 67, "vel": 127, "ch": 0}, {"start": 153088, "end": 153342, "note": 66, "vel": 127, "ch": 0}, {"start": 153344, "end": 153598, "note": 64, "vel": 127, "ch": 0}, {"start": 153600, "end": 154622, "note": 66, "vel": 127, "ch": 0}, {"start": 154624, "end": 155646, "note": 64, "vel": 127, "ch": 0}, {"start": 151552, "end": 155646, "note": 45, "vel": 102, "ch": 1}, {"start": 151552, "end": 155646, "note": 52, "vel": 102, "ch": 1}, {"start": 151552, "end": 155646, "note": 61, "vel": 102, "ch": 1}, {"start": 151552, "end": 155646, "note": 64, "vel": 102, "ch": 1}, {"start": 151552, "end": 155646, "note": 45, "vel": 102, "ch": 2}, {"start": 155648, "end": 157182, "note": 64, "vel": 127, "ch": 0}, {"start": 157184, "end": 157438, "note": 62, "vel": 127, "ch": 0}, {"start": 157440, "end": 157694, "note": 61, "vel": 127, "ch": 0}, {"start": 157696, "end": 159230, "note": 62, "vel": 127, "ch": 0}, {"start": 159232, "end": 159486, "note": 61, "vel": 127, "ch": 0}, {"start": 159488, "end": 159742, "note": 59, "vel": 127, "ch": 0}, {"start": 155648, "end": 159742, "note": 40, "vel": 102, "ch": 1}, {"start": 155648, "end": 159742, "note": 55, "vel": 102, "ch": 1}, {"start": 155648, "end": 159742, "note": 59, "vel": 102, "ch": 1}, {"start": 155648, "end": 159742, "note": 64, "vel": 102, "ch": 1}, {"start": 155648, "end": 159742, "note": 52, "vel": 102, "ch": 2}, {"start": 159744, "end": 159998, "note": 61, "vel": 127, "ch": 0}, {"start": 160000, "end": 160254, "note": 62, "vel": 127, "ch": 0}, {"start": 160256, "end": 163326, "note": 61, "vel": 127, "ch": 0}, {"start": 163328, "end": 163838, "note": 59, "vel": 127, "ch": 0}, {"start": 159744, "end": 163838, "note": 43, "vel": 102, "ch": 1}, {"start": 159744, "end": 163838, "note": 50, "vel": 102, "ch": 1}, {"start": 159744, "end": 163838, "note": 59, "vel": 102, "ch": 1}, {"start": 159744, "end": 163838, "note": 67, "vel": 102, "ch": 1}, {"start": 159744, "end": 163838, "note": 43, "vel": 102, "ch": 2}, {"start": 163840, "end": 164350, "note": 61, "vel": 127, "ch": 0}, {"start": 164352, "end": 164862, "note": 59, "vel": 127, "ch": 0}, {"start": 164864, "end": 165374, "note": 54, "vel": 127, "ch": 0}, {"start": 165376, "end": 165886, "note": 62, "vel": 127, "ch": 0}, {"start": 165888, "end": 166398, "note": 61, "vel": 127, "ch": 0}, {"start": 166400, "end": 166910, "note": 59, "vel": 127, "ch": 0}, {"start": 166912, "end": 167422, "note": 67, "vel": 127, "ch": 0}, {"start": 167424, "end": 167934, "note": 66, "vel": 127, "ch": 0}, {"start": 163840, "end": 167934, "note": 47, "vel": 102, "ch": 1}, {"start": 163840, "end": 167934, "note": 54, "vel": 102, "ch": 1}, {"start": 163840, "end": 167934, "note": 59, "vel": 102, "ch": 1}, {"start": 163840, "end": 167934, "note": 62, "vel": 102, "ch": 1}, {"start": 163840, "end": 167934, "note": 47, "vel": 102, "ch": 2}, {"start": 167936, "end": 168446, "note": 61, "vel": 127, "ch": 0}, {"start": 168448, "end": 168958, "note": 59, "vel": 127, "ch": 0}, {"start": 168960, "end": 169470, "note": 52, "vel": 127, "ch": 0}, {"start": 169472, "end": 169982, "note": 62, "vel": 127, "ch": 0}, {"start": 169984, "end": 170494, "note": 61, "vel": 127, "ch": 0}, {"start": 170496, "end": 171006, "note": 59, "vel": 127, "ch": 0}, {"start": 171008, "end": 171518, "note": 69, "vel": 127, "ch": 0}, {"start": 171520, "end": 172030, "note": 67, "vel": 127, "ch": 0}, {"start": 167936, "end": 172030, "note": 45, "vel": 102, "ch": 1}, {"start": 167936, "end": 172030, "note": 52, "vel": 102, "ch": 1}, {"start": 167936, "end": 172030, "note": 61, "vel": 102, "ch": 1}, {"start": 167936, "end": 172030, "note": 64, "vel": 102, "ch": 1}, {"start": 167936, "end": 172030, "note": 45, "vel": 102, "ch": 2}, {"start": 172032, "end": 172542, "note": 66, "vel": 127, "ch": 0}, {"start": 172544, "end": 173054, "note": 64, "vel": 127, "ch": 0}, {"start": 173056, "end": 173566, "note": 66, "vel": 127, "ch": 0}, {"start": 173568, "end": 174078, "note": 64, "vel": 127, "ch": 0}, {"start": 174080, "end": 174590, "note": 62, "vel": 127, "ch": 0}, {"start": 174592, "end": 175102, "note": 59, "vel": 127, "ch": 0}, {"start": 175104, "end": 175614, "note": 61, "vel": 127, "ch": 0}, {"start": 175616, "end": 176126, "note": 59, "vel": 127, "ch": 0}, {"start": 172032, "end": 176126, "note": 40, "vel": 102, "ch": 1}, {"start": 172032, "end": 176126, "note": 55, "vel": 102, "ch": 1}, {"start": 172032, "end": 176126, "note": 59, "vel": 102, "ch": 1}, {"start": 172032, "end": 176126, "note": 64, "vel": 102, "ch": 1}, {"start": 172032, "end": 176126, "note": 52, "vel": 102, "ch": 2}, {"start": 176128, "end": 176638, "note": 62, "vel": 127, "ch": 0}, {"start": 176640, "end": 177150, "note": 59, "vel": 127, "ch": 0}, {"start": 177152, "end": 177662, "note": 64, "vel": 127, "ch": 0}, {"start": 177664, "end": 178174, "note": 62, "vel": 127, "ch": 0}, {"start": 176128, "end": 178174, "note": 43, "vel": 102, "ch": 1}, {"start": 176128, "end": 178174, "note": 50, "vel": 102, "ch": 1}, {"start": 176128, "end": 178174, "note": 59, "vel": 102, "ch": 1}, {"start": 176128, "end": 178174, "note": 67, "vel": 102, "ch": 1}, {"start": 176128, "end": 178174, "note": 43, "vel": 102, "ch": 2}, {"start": 178176, "end": 178686, "note": 66, "vel": 127, "ch": 0}, {"start": 178688, "end": 179198, "note": 64, "vel": 127, "ch": 0}, {"start": 179200, "end": 179710, "note": 62, "vel": 127, "ch": 0}, {"start": 179712, "end": 180222, "note": 61, "vel": 127, "ch": 0}, {"start": 178176, "end": 180222, "note": 45, "vel": 102, "ch": 1}, {"start": 178176, "end": 180222, "note": 52, "vel": 102, "ch": 1}, {"start": 178176, "end": 180222, "note": 61, "vel": 102, "ch": 1}, {"start": 178176, "end": 180222, "note": 64, "vel": 102, "ch": 1}, {"start": 178176, "end": 180222, "note": 45, "vel": 102, "ch": 2}, {"start": 180224, "end": 180478, "note": 71, "vel": 127, "ch": 0}, {"start": 180480, "end": 180734, "note": 66, "vel": 127, "ch": 0}, {"start": 180736, "end": 180990, "note": 64, "vel": 127, "ch": 0}, {"start": 180992, "end": 181246, "note": 66, "vel": 127, "ch": 0}, {"start": 181248, "end": 181502, "note": 71, "vel": 127, "ch": 0}, {"start": 181504, "end": 181758, "note": 66, "vel": 127, "ch": 0}, {"start": 181760, "end": 182014, "note": 64, "vel": 127, "ch": 0}, {"start": 182016, "end": 182270, "note": 66, "vel": 127, "ch": 0}, {"start": 182272, "end": 182526, "note": 71, "vel": 127, "ch": 0}, {"start": 182528, "end": 182782, "note": 66, "vel": 127, "ch": 0}, {"start": 182784, "end": 183038, "note": 64, "vel": 127, "ch": 0}, {"start": 183040, "end": 183294, "note": 66, "vel": 127, "ch": 0}, {"start": 183296, "end": 183550, "note": 73, "vel": 127, "ch": 0}, {"start": 183552, "end": 183806, "note": 66, "vel": 127, "ch": 0}, {"start": 183808, "end": 184062, "note": 64, "vel": 127, "ch": 0}, {"start": 184064, "end": 184318, "note": 66, "vel": 127, "ch": 0}, {"start": 180224, "end": 184318, "note": 47, "vel": 102, "ch": 1}, {"start": 180224, "end": 184318, "note": 54, "vel": 102, "ch": 1}, {"start": 180224, "end": 184318, "note": 59, "vel": 102, "ch": 1}, {"start": 180224, "end": 184318, "note": 62, "vel": 102, "ch": 1}, {"start": 180224, "end": 184318, "note": 47, "vel": 102, "ch": 2}, {"start": 184320, "end": 184574, "note": 69, "vel": 127, "ch": 0}, {"start": 184576, "end": 184830, "note": 66, "vel": 127, "ch": 0}, {"start": 184832, "end": 185086, "note": 64, "vel": 127, "ch": 0}, {"start": 185088, "end": 185342, "note": 66, "vel": 127, "ch": 0}, {"start": 185344, "end": 185598, "note": 69, "vel": 127, "ch": 0}, {"start": 185600, "end": 185854, "note": 66, "vel": 127, "ch": 0}, {"start": 185856, "end": 186110, "note": 64, "vel": 127, "ch": 0}, {"start": 186112, "end": 186366, "note": 66, "vel": 127, "ch": 0}, {"start": 186368, "end": 186622, "note": 69, "vel": 127, "ch": 0}, {"start": 186624, "end": 186878, "note": 66, "vel": 127, "ch": 0}, {"start": 186880, "end": 187134, "note": 64, "vel": 127, "ch": 0}, {"start": 187136, "end": 187390, "note": 66, "vel": 127, "ch": 0}, {"start": 187392, "end": 187646, "note": 67, "vel": 127, "ch": 0}, {"start": 187648, "end": 187902, "note": 66, "vel": 127, "ch": 0}, {"start": 187904, "end": 188158, "note": 64, "vel": 127, "ch": 0}, {"start": 188160, "end": 188414, "note": 62, "vel": 127, "ch": 0}, {"start": 184320, "end": 188414, "note": 45, "vel": 102, "ch": 1}, {"start": 184320, "end": 188414, "note": 52, "vel": 102, "ch": 1}, {"start": 184320, "end": 188414, "note": 61, "vel": 102, "ch": 1}, {"start": 184320, "end": 188414, "note": 64, "vel": 102, "ch": 1}, {"start": 184320, "end": 188414, "note": 45, "vel": 102, "ch": 2}, {"start": 188416, "end": 188670, "note": 67, "vel": 127, "ch": 0}, {"start": 188672, "end": 188926, "note": 66, "vel": 127, "ch": 0}, {"start": 188928, "end": 189182, "note": 64, "vel": 127, "ch": 0}, {"start": 189184, "end": 189438, "note": 62, "vel": 127, "ch": 0}, {"start": 189440, "end": 189694, "note": 67, "vel": 127, "ch": 0}, {"start": 189696, "end": 189950, "note": 66, "vel": 127, "ch": 0}, {"start": 189952, "end": 190206, "note": 64, "vel": 127, "ch": 0}, {"start": 190208, "end": 190462, "note": 62, "vel": 127, "ch": 0}, {"start": 190464, "end": 190718, "note": 67, "vel": 127, "ch": 0}, {"start": 190720, "end": 190974, "note": 66, "vel": 127, "ch": 0}, {"start": 190976, "end": 191230, "note": 64, "vel": 127, "ch": 0}, {"start": 191232, "end": 191486, "note": 62, "vel": 127, "ch": 0}, {"start": 191488, "end": 191742, "note": 67, "vel": 127, "ch": 0}, {"start": 191744, "end": 191998, "note": 66, "vel": 127, "ch": 0}, {"start": 192000, "end": 192254, "note": 64, "vel": 127, "ch": 0}, {"start": 192256, "end": 192510, "note": 62, "vel": 127, "ch": 0}, {"start": 188416, "end": 192510, "note": 40, "vel": 102, "ch": 1}, {"start": 188416, "end": 192510, "note": 55, "vel": 102, "ch": 1}, {"start": 188416, "end": 192510, "note": 59, "vel": 102, "ch": 1}, {"start": 188416, "end": 192510, "note": 64, "vel": 102, "ch": 1}, {"start": 188416, "end": 192510, "note": 52, "vel": 102, "ch": 2}, {"start": 192512, "end": 192766, "note": 66, "vel": 127, "ch": 0}, {"start": 192768, "end": 193022, "note": 67, "vel": 127, "ch": 0}, {"start": 193024, "end": 193278, "note": 69, "vel": 127, "ch": 0}, {"start": 193280, "end": 193534, "note": 67, "vel": 127, "ch": 0}, {"start": 193536, "end": 193790, "note": 66, "vel": 127, "ch": 0}, {"start": 193792, "end": 194046, "note": 64, "vel": 127, "ch": 0}, {"start": 194048, "end": 194302, "note": 62, "vel": 127, "ch": 0}, {"start": 194304, "end": 194558, "note": 61, "vel": 127, "ch": 0}, {"start": 194560, "end": 194814, "note": 64, "vel": 127, "ch": 0}, {"start": 194816, "end": 195070, "note": 62, "vel": 127, "ch": 0}, {"start": 195072, "end": 195326, "note": 61, "vel": 127, "ch": 0}, {"start": 195328, "end": 195582, "note": 59, "vel": 127, "ch": 0}, {"start": 195584, "end": 195838, "note": 62, "vel": 127, "ch": 0}, {"start": 195840, "end": 196094, "note": 61, "vel": 127, "ch": 0}, {"start": 196096, "end": 196349, "note": 59, "vel": 127, "ch": 0}, {"start": 196351, "end": 196606, "note": 57, "vel": 127, "ch": 0}, {"start": 192512, "end": 196606, "note": 43, "vel": 102, "ch": 1}, {"start": 192512, "end": 196606, "note": 50, "vel": 102, "ch": 1}, {"start": 192512, "end": 196606, "note": 59, "vel": 102, "ch": 1}, {"start": 192512, "end": 196606, "note": 67, "vel": 102, "ch": 1}, {"start": 192512, "end": 196606, "note": 43, "vel": 102, "ch": 2}, {"start": 196608, "end": 196861, "note": 71, "vel": 127, "ch": 0}, {"start": 196863, "end": 197118, "note": 66, "vel": 127, "ch": 0}, {"start": 197120, "end": 197374, "note": 64, "vel": 127, "ch": 0}, {"start": 197376, "end": 197631, "note": 66, "vel": 127, "ch": 0}, {"start": 197633, "end": 197886, "note": 71, "vel": 127, "ch": 0}, {"start": 197888, "end": 198143, "note": 66, "vel": 127, "ch": 0}, {"start": 198145, "end": 198398, "note": 64, "vel": 127, "ch": 0}, {"start": 198400, "end": 198653, "note": 66, "vel": 127, "ch": 0}, {"start": 198655, "end": 198910, "note": 71, "vel": 127, "ch": 0}, {"start": 198912, "end": 199165, "note": 66, "vel": 127, "ch": 0}, {"start": 199167, "end": 199423, "note": 64, "vel": 127, "ch": 0}, {"start": 199425, "end": 199678, "note": 66, "vel": 127, "ch": 0}, {"start": 199680, "end": 199935, "note": 73, "vel": 127, "ch": 0}, {"start": 199937, "end": 200190, "note": 66, "vel": 127, "ch": 0}, {"start": 200192, "end": 200445, "note": 64, "vel": 127, "ch": 0}, {"start": 200447, "end": 200702, "note": 66, "vel": 127, "ch": 0}, {"start": 196608, "end": 200702, "note": 47, "vel": 102, "ch": 1}, {"start": 196608, "end": 200702, "note": 54, "vel": 102, "ch": 1}, {"start": 196608, "end": 200702, "note": 59, "vel": 102, "ch": 1}, {"start": 196608, "end": 200702, "note": 62, "vel": 102, "ch": 1}, {"start": 196608, "end": 200702, "note": 47, "vel": 102, "ch": 2}, {"start": 200704, "end": 200957, "note": 69, "vel": 127, "ch": 0}, {"start": 200959, "end": 201215, "note": 66, "vel": 127, "ch": 0}, {"start": 201217, "end": 201470, "note": 64, "vel": 127, "ch": 0}, {"start": 201472, "end": 201727, "note": 66, "vel": 127, "ch": 0}, {"start": 201729, "end": 201982, "note": 69, "vel": 127, "ch": 0}, {"start": 201984, "end": 202237, "note": 66, "vel": 127, "ch": 0}, {"start": 202239, "end": 202494, "note": 64, "vel": 127, "ch": 0}, {"start": 202496, "end": 202749, "note": 66, "vel": 127, "ch": 0}, {"start": 202751, "end": 203006, "note": 69, "vel": 127, "ch": 0}, {"start": 203008, "end": 203262, "note": 66, "vel": 127, "ch": 0}, {"start": 203264, "end": 203519, "note": 64, "vel": 127, "ch": 0}, {"start": 203521, "end": 203774, "note": 66, "vel": 127, "ch": 0}, {"start": 203776, "end": 204031, "note": 67, "vel": 127, "ch": 0}, {"start": 204033, "end": 204286, "note": 66, "vel": 127, "ch": 0}, {"start": 204288, "end": 204541, "note": 64, "vel": 127, "ch": 0}, {"start": 204543, "end": 204798, "note": 62, "vel": 127, "ch": 0}, {"start": 200704, "end": 204798, "note": 45, "vel": 102, "ch": 1}, {"start": 200704, "end": 204798, "note": 52, "vel": 102, "ch": 1}, {"start": 200704, "end": 204798, "note": 61, "vel": 102, "ch": 1}, {"start": 200704, "end": 204798, "note": 64, "vel": 102, "ch": 1}, {"start": 200704, "end": 204798, "note": 45, "vel": 102, "ch": 2}, {"start": 204800, "end": 205053, "note": 67, "vel": 127, "ch": 0}, {"start": 205055, "end": 205311, "note": 66, "vel": 127, "ch": 0}, {"start": 205313, "end": 205566, "note": 64, "vel": 127, "ch": 0}, {"start": 205568, "end": 205823, "note": 62, "vel": 127, "ch": 0}, {"start": 205825, "end": 206078, "note": 67, "vel": 127, "ch": 0}, {"start": 206080, "end": 206333, "note": 66, "vel": 127, "ch": 0}, {"start": 206335, "end": 206590, "note": 64, "vel": 127, "ch": 0}, {"start": 206592, "end": 206845, "note": 62, "vel": 127, "ch": 0}, {"start": 206847, "end": 207103, "note": 67, "vel": 127, "ch": 0}, {"start": 207105, "end": 207358, "note": 66, "vel": 127, "ch": 0}, {"start": 207360, "end": 207615, "note": 64, "vel": 127, "ch": 0}, {"start": 207617, "end": 207870, "note": 62, "vel": 127, "ch": 0}, {"start": 207872, "end": 208125, "note": 67, "vel": 127, "ch": 0}, {"start": 208127, "end": 208382, "note": 66, "vel": 127, "ch": 0}, {"start": 208384, "end": 208637, "note": 64, "vel": 127, "ch": 0}, {"start": 208639, "end": 208894, "note": 62, "vel": 127, "ch": 0}, {"start": 204800, "end": 208894, "note": 40, "vel": 102, "ch": 1}, {"start": 204800, "end": 208894, "note": 55, "vel": 102, "ch": 1}, {"start": 204800, "end": 208894, "note": 59, "vel": 102, "ch": 1}, {"start": 204800, "end": 208894, "note": 64, "vel": 102, "ch": 1}, {"start": 204800, "end": 208894, "note": 52, "vel": 102, "ch": 2}, {"start": 208896, "end": 209150, "note": 71, "vel": 127, "ch": 0}, {"start": 209152, "end": 209407, "note": 73, "vel": 127, "ch": 0}, {"start": 209409, "end": 209662, "note": 74, "vel": 127, "ch": 0}, {"start": 209664, "end": 209919, "note": 73, "vel": 127, "ch": 0}, {"start": 209921, "end": 210174, "note": 71, "vel": 127, "ch": 0}, {"start": 210176, "end": 210429, "note": 69, "vel": 127, "ch": 0}, {"start": 210431, "end": 210686, "note": 67, "vel": 127, "ch": 0}, {"start": 210688, "end": 210941, "note": 66, "vel": 127, "ch": 0}, {"start": 210943, "end": 211199, "note": 69, "vel": 127, "ch": 0}, {"start": 211201, "end": 211454, "note": 67, "vel": 127, "ch": 0}, {"start": 211456, "end": 211711, "note": 66, "vel": 127, "ch": 0}, {"start": 211713, "end": 211966, "note": 64, "vel": 127, "ch": 0}, {"start": 211968, "end": 212221, "note": 67, "vel": 127, "ch": 0}, {"start": 212223, "end": 212478, "note": 66, "vel": 127, "ch": 0}, {"start": 212480, "end": 212733, "note": 64, "vel": 127, "ch": 0}, {"start": 212735, "end": 212991, "note": 62, "vel": 127, "ch": 0}, {"start": 208896, "end": 212991, "note": 43, "vel": 102, "ch": 1}, {"start": 208896, "end": 212991, "note": 50, "vel": 102, "ch": 1}, {"start": 208896, "end": 212991, "note": 59, "vel": 102, "ch": 1}, {"start": 208896, "end": 212991, "note": 67, "vel": 102, "ch": 1}, {"start": 208896, "end": 212991, "note": 43, "vel": 102, "ch": 2}, {"start": 212993, "end": 213246, "note": 66, "vel": 127, "ch": 0}, {"start": 213248, "end": 213503, "note": 67, "vel": 127, "ch": 0}, {"start": 213505, "end": 213758, "note": 69, "vel": 127, "ch": 0}, {"start": 213760, "end": 214013, "note": 67, "vel": 127, "ch": 0}, {"start": 214015, "end": 214270, "note": 66, "vel": 127, "ch": 0}, {"start": 214272, "end": 214525, "note": 64, "vel": 127, "ch": 0}, {"start": 214527, "end": 214782, "note": 62, "vel": 127, "ch": 0}, {"start": 214784, "end": 215038, "note": 61, "vel": 127, "ch": 0}, {"start": 215040, "end": 215295, "note": 64, "vel": 127, "ch": 0}, {"start": 215297, "end": 215550, "note": 62, "vel": 127, "ch": 0}, {"start": 215552, "end": 215807, "note": 61, "vel": 127, "ch": 0}, {"start": 215809, "end": 216062, "note": 59, "vel": 127, "ch": 0}, {"start": 216064, "end": 216317, "note": 62, "vel": 127, "ch": 0}, {"start": 216319, "end": 216574, "note": 61, "vel": 127, "ch": 0}, {"start": 216576, "end": 216829, "note": 59, "vel": 127, "ch": 0}, {"start": 216831, "end": 217087, "note": 57, "vel": 127, "ch": 0}, {"start": 212993, "end": 217087, "note": 47, "vel": 102, "ch": 1}, {"start": 212993, "end": 217087, "note": 54, "vel": 102, "ch": 1}, {"start": 212993, "end": 217087, "note": 59, "vel": 102, "ch": 1}, {"start": 212993, "end": 217087, "note": 62, "vel": 102, "ch": 1}, {"start": 212993, "end": 217087, "note": 47, "vel": 102, "ch": 2}, {"start": 217089, "end": 217342, "note": 66, "vel": 127, "ch": 0}, {"start": 217344, "end": 217599, "note": 67, "vel": 127, "ch": 0}, {"start": 217601, "end": 217854, "note": 69, "vel": 127, "ch": 0}, {"start": 217856, "end": 218109, "note": 67, "vel": 127, "ch": 0}, {"start": 218111, "end": 218366, "note": 66, "vel": 127, "ch": 0}, {"start": 218368, "end": 218621, "note": 64, "vel": 127, "ch": 0}, {"start": 218623, "end": 218879, "note": 62, "vel": 127, "ch": 0}, {"start": 218881, "end": 219134, "note": 61, "vel": 127, "ch": 0}, {"start": 219136, "end": 219391, "note": 64, "vel": 127, "ch": 0}, {"start": 219393, "end": 219646, "note": 62, "vel": 127, "ch": 0}, {"start": 219648, "end": 219901, "note": 61, "vel": 127, "ch": 0}, {"start": 219903, "end": 220158, "note": 59, "vel": 127, "ch": 0}, {"start": 220160, "end": 220413, "note": 62, "vel": 127, "ch": 0}, {"start": 220415, "end": 220670, "note": 61, "vel": 127, "ch": 0}, {"start": 220672, "end": 220926, "note": 59, "vel": 127, "ch": 0}, {"start": 220928, "end": 221183, "note": 57, "vel": 127, "ch": 0}, {"start": 217089, "end": 221183, "note": 45, "vel": 102, "ch": 1}, {"start": 217089, "end": 221183, "note": 52, "vel": 102, "ch": 1}, {"start": 217089, "end": 221183, "note": 61, "vel": 102, "ch": 1}, {"start": 217089, "end": 221183, "note": 64, "vel": 102, "ch": 1}, {"start": 217089, "end": 221183, "note": 45, "vel": 102, "ch": 2}, {"start": 221185, "end": 221438, "note": 67, "vel": 127, "ch": 0}, {"start": 221440, "end": 221695, "note": 66, "vel": 127, "ch": 0}, {"start": 221697, "end": 221950, "note": 64, "vel": 127, "ch": 0}, {"start": 221952, "end": 222205, "note": 62, "vel": 127, "ch": 0}, {"start": 222207, "end": 222462, "note": 66, "vel": 127, "ch": 0}, {"start": 222464, "end": 222718, "note": 64, "vel": 127, "ch": 0}, {"start": 222720, "end": 222975, "note": 62, "vel": 127, "ch": 0}, {"start": 222977, "end": 223230, "note": 61, "vel": 127, "ch": 0}, {"start": 223232, "end": 223487, "note": 64, "vel": 127, "ch": 0}, {"start": 223489, "end": 223742, "note": 62, "vel": 127, "ch": 0}, {"start": 223744, "end": 223997, "note": 61, "vel": 127, "ch": 0}, {"start": 223999, "end": 224254, "note": 59, "vel": 127, "ch": 0}, {"start": 224256, "end": 224509, "note": 62, "vel": 127, "ch": 0}, {"start": 224511, "end": 224767, "note": 61, "vel": 127, "ch": 0}, {"start": 224769, "end": 225022, "note": 59, "vel": 127, "ch": 0}, {"start": 225024, "end": 225279, "note": 57, "vel": 127, "ch": 0}, {"start": 221185, "end": 225279, "note": 40, "vel": 102, "ch": 1}, {"start": 221185, "end": 225279, "note": 55, "vel": 102, "ch": 1}, {"start": 221185, "end": 225279, "note": 59, "vel": 102, "ch": 1}, {"start": 221185, "end": 225279, "note": 64, "vel": 102, "ch": 1}, {"start": 221185, "end": 225279, "note": 52, "vel": 102, "ch": 2}, {"start": 225281, "end": 225534, "note": 66, "vel": 127, "ch": 0}, {"start": 225536, "end": 225789, "note": 67, "vel": 127, "ch": 0}, {"start": 225791, "end": 226046, "note": 69, "vel": 127, "ch": 0}, {"start": 226048, "end": 226301, "note": 67, "vel": 127, "ch": 0}, {"start": 226303, "end": 226558, "note": 66, "vel": 127, "ch": 0}, {"start": 226560, "end": 226814, "note": 64, "vel": 127, "ch": 0}, {"start": 226816, "end": 227071, "note": 62, "vel": 127, "ch": 0}, {"start": 227073, "end": 227326, "note": 61, "vel": 127, "ch": 0}, {"start": 227328, "end": 227583, "note": 64, "vel": 127, "ch": 0}, {"start": 227585, "end": 227838, "note": 62, "vel": 127, "ch": 0}, {"start": 227840, "end": 228093, "note": 61, "vel": 127, "ch": 0}, {"start": 228095, "end": 228350, "note": 59, "vel": 127, "ch": 0}, {"start": 228352, "end": 228606, "note": 62, "vel": 127, "ch": 0}, {"start": 228608, "end": 228863, "note": 61, "vel": 127, "ch": 0}, {"start": 228865, "end": 229118, "note": 59, "vel": 127, "ch": 0}, {"start": 229120, "end": 229375, "note": 57, "vel": 127, "ch": 0}, {"start": 225281, "end": 229375, "note": 43, "vel": 102, "ch": 1}, {"start": 225281, "end": 229375, "note": 50, "vel": 102, "ch": 1}, {"start": 225281, "end": 229375, "note": 59, "vel": 102, "ch": 1}, {"start": 225281, "end": 229375, "note": 67, "vel": 102, "ch": 1}, {"start": 225281, "end": 229375, "note": 43, "vel": 102, "ch": 2}, {"start": 229377, "end": 229630, "note": 62, "vel": 127, "ch": 0}, {"start": 229632, "end": 229885, "note": 61, "vel": 127, "ch": 0}, {"start": 229887, "end": 230142, "note": 59, "vel": 127, "ch": 0}, {"start": 230144, "end": 230397, "note": 57, "vel": 127, "ch": 0}, {"start": 230399, "end": 230655, "note": 61, "vel": 127, "ch": 0}, {"start": 230657, "end": 230910, "note": 59, "vel": 127, "ch": 0}, {"start": 230912, "end": 231167, "note": 57, "vel": 127, "ch": 0}, {"start": 231169, "end": 231422, "note": 55, "vel": 127, "ch": 0}, {"start": 231424, "end": 231677, "note": 59, "vel": 127, "ch": 0}, {"start": 231679, "end": 231934, "note": 57, "vel": 127, "ch": 0}, {"start": 231936, "end": 232189, "note": 55, "vel": 127, "ch": 0}, {"start": 232191, "end": 232446, "note": 54, "vel": 127, "ch": 0}, {"start": 232448, "end": 232702, "note": 57, "vel": 127, "ch": 0}, {"start": 232704, "end": 232959, "note": 55, "vel": 127, "ch": 0}, {"start": 232961, "end": 233214, "note": 54, "vel": 127, "ch": 0}, {"start": 233216, "end": 233471, "note": 52, "vel": 127, "ch": 0}, {"start": 229377, "end": 233471, "note": 47, "vel": 102, "ch": 1}, {"start": 229377, "end": 233471, "note": 54, "vel": 102, "ch": 1}, {"start": 229377, "end": 233471, "note": 59, "vel": 102, "ch": 1}, {"start": 229377, "end": 233471, "note": 62, "vel": 102, "ch": 1}, {"start": 229377, "end": 233471, "note": 47, "vel": 102, "ch": 2}, {"start": 233473, "end": 233726, "note": 61, "vel": 127, "ch": 0}, {"start": 233728, "end": 233981, "note": 59, "vel": 127, "ch": 0}, {"start": 233983, "end": 234238, "note": 57, "vel": 127, "ch": 0}, {"start": 234240, "end": 234494, "note": 59, "vel": 127, "ch": 0}, {"start": 234496, "end": 234751, "note": 62, "vel": 127, "ch": 0}, {"start": 234753, "end": 235006, "note": 61, "vel": 127, "ch": 0}, {"start": 235008, "end": 235263, "note": 59, "vel": 127, "ch": 0}, {"start": 235265, "end": 235518, "note": 61, "vel": 127, "ch": 0}, {"start": 235520, "end": 235773, "note": 64, "vel": 127, "ch": 0}, {"start": 235775, "end": 236030, "note": 62, "vel": 127, "ch": 0}, {"start": 236032, "end": 236285, "note": 61, "vel": 127, "ch": 0}, {"start": 236287, "end": 236543, "note": 62, "vel": 127, "ch": 0}, {"start": 236545, "end": 236798, "note": 66, "vel": 127, "ch": 0}, {"start": 236800, "end": 237055, "note": 64, "vel": 127, "ch": 0}, {"start": 237057, "end": 237310, "note": 62, "vel": 127, "ch": 0}, {"start": 237312, "end": 237565, "note": 64, "vel": 127, "ch": 0}, {"start": 233473, "end": 237565, "note": 45, "vel": 102, "ch": 1}, {"start": 233473, "end": 237565, "note": 52, "vel": 102, "ch": 1}, {"start": 233473, "end": 237565, "note": 61, "vel": 102, "ch": 1}, {"start": 233473, "end": 237565, "note": 64, "vel": 102, "ch": 1}, {"start": 233473, "end": 237565, "note": 45, "vel": 102, "ch": 2}, {"start": 237567, "end": 237822, "note": 67, "vel": 127, "ch": 0}, {"start": 237824, "end": 238077, "note": 66, "vel": 127, "ch": 0}, {"start": 238079, "end": 238334, "note": 64, "vel": 127, "ch": 0}, {"start": 238336, "end": 238590, "note": 62, "vel": 127, "ch": 0}, {"start": 238592, "end": 238847, "note": 64, "vel": 127, "ch": 0}, {"start": 238849, "end": 239102, "note": 66, "vel": 127, "ch": 0}, {"start": 239104, "end": 239359, "note": 67, "vel": 127, "ch": 0}, {"start": 239361, "end": 239614, "note": 69, "vel": 127, "ch": 0}, {"start": 239616, "end": 239869, "note": 71, "vel": 127, "ch": 0}, {"start": 239871, "end": 240126, "note": 69, "vel": 127, "ch": 0}, {"start": 240128, "end": 240382, "note": 67, "vel": 127, "ch": 0}, {"start": 240384, "end": 240639, "note": 69, "vel": 127, "ch": 0}, {"start": 240641, "end": 240894, "note": 67, "vel": 127, "ch": 0}, {"start": 240896, "end": 241151, "note": 66, "vel": 127, "ch": 0}, {"start": 241153, "end": 241406, "note": 64, "vel": 127, "ch": 0}, {"start": 241408, "end": 241661, "note": 62, "vel": 127, "ch": 0}, {"start": 237567, "end": 241661, "note": 40, "vel": 102, "ch": 1}, {"start": 237567, "end": 241661, "note": 55, "vel": 102, "ch": 1}, {"start": 237567, "end": 241661, "note": 59, "vel": 102, "ch": 1}, {"start": 237567, "end": 241661, "note": 64, "vel": 102, "ch": 1}, {"start": 237567, "end": 241661, "note": 52, "vel": 102, "ch": 2}, {"start": 241663, "end": 241918, "note": 59, "vel": 127, "ch": 0}, {"start": 241920, "end": 242173, "note": 61, "vel": 127, "ch": 0}, {"start": 242175, "end": 242431, "note": 62, "vel": 127, "ch": 0}, {"start": 242433, "end": 242686, "note": 61, "vel": 127, "ch": 0}, {"start": 242688, "end": 242943, "note": 59, "vel": 127, "ch": 0}, {"start": 242945, "end": 243198, "note": 57, "vel": 127, "ch": 0}, {"start": 243200, "end": 243453, "note": 55, "vel": 127, "ch": 0}, {"start": 243455, "end": 243710, "note": 54, "vel": 127, "ch": 0}, {"start": 243712, "end": 243965, "note": 55, "vel": 127, "ch": 0}, {"start": 243967, "end": 244222, "note": 57, "vel": 127, "ch": 0}, {"start": 244224, "end": 244478, "note": 59, "vel": 127, "ch": 0}, {"start": 244480, "end": 244735, "note": 57, "vel": 127, "ch": 0}, {"start": 244737, "end": 244990, "note": 55, "vel": 127, "ch": 0}, {"start": 244992, "end": 245247, "note": 54, "vel": 127, "ch": 0}, {"start": 245249, "end": 245502, "note": 55, "vel": 127, "ch": 0}, {"start": 245504, "end": 245757, "note": 57, "vel": 127, "ch": 0}, {"start": 241663, "end": 245757, "note": 43, "vel": 102, "ch": 1}, {"start": 241663, "end": 245757, "note": 50, "vel": 102, "ch": 1}, {"start": 241663, "end": 245757, "note": 59, "vel": 102, "ch": 1}, {"start": 241663, "end": 245757, "note": 67, "vel": 102, "ch": 1}, {"start": 241663, "end": 245757, "note": 43, "vel": 102, "ch": 2}, {"start": 245759, "end": 248831, "note": 59, "vel": 127, "ch": 0}, {"start": 248833, "end": 249341, "note": 61, "vel": 127, "ch": 0}, {"start": 249343, "end": 249853, "note": 62, "vel": 127, "ch": 0}, {"start": 245759, "end": 249853, "note": 47, "vel": 102, "ch": 1}, {"start": 245759, "end": 249853, "note": 54, "vel": 102, "ch": 1}, {"start": 245759, "end": 249853, "note": 59, "vel": 102, "ch": 1}, {"start": 245759, "end": 249853, "note": 62, "vel": 102, "ch": 1}, {"start": 245759, "end": 249853, "note": 47, "vel": 102, "ch": 2}, {"start": 249855, "end": 251902, "note": 64, "vel": 127, "ch": 0}, {"start": 251904, "end": 252927, "note": 62, "vel": 127, "ch": 0}, {"start": 252929, "end": 253949, "note": 61, "vel": 127, "ch": 0}, {"start": 249855, "end": 253949, "note": 45, "vel": 102, "ch": 1}, {"start": 249855, "end": 253949, "note": 52, "vel": 102, "ch": 1}, {"start": 249855, "end": 253949, "note": 61, "vel": 102, "ch": 1}, {"start": 249855, "end": 253949, "note": 64, "vel": 102, "ch": 1}, {"start": 249855, "end": 253949, "note": 45, "vel": 102, "ch": 2}, {"start": 253951, "end": 255486, "note": 66, "vel": 127, "ch": 0}, {"start": 255488, "end": 255741, "note": 64, "vel": 127, "ch": 0}, {"start": 255743, "end": 255998, "note": 62, "vel": 127, "ch": 0}, {"start": 256000, "end": 258046, "note": 64, "vel": 127, "ch": 0}, {"start": 253951, "end": 258046, "note": 40, "vel": 102, "ch": 1}, {"start": 253951, "end": 258046, "note": 55, "vel": 102, "ch": 1}, {"start": 253951, "end": 258046, "note": 59, "vel": 102, "ch": 1}, {"start": 253951, "end": 258046, "note": 64, "vel": 102, "ch": 1}, {"start": 253951, "end": 258046, "note": 52, "vel": 102, "ch": 2}, {"start": 258048, "end": 258303, "note": 71, "vel": 127, "ch": 0}, {"start": 258305, "end": 258558, "note": 73, "vel": 127, "ch": 0}, {"start": 258560, "end": 258815, "note": 74, "vel": 127, "ch": 0}, {"start": 258817, "end": 259070, "note": 73, "vel": 127, "ch": 0}, {"start": 259072, "end": 259325, "note": 71, "vel": 127, "ch": 0}, {"start": 259327, "end": 259582, "note": 69, "vel": 127, "ch": 0}, {"start": 259584, "end": 259837, "note": 67, "vel": 127, "ch": 0}, {"start": 259839, "end": 260094, "note": 66, "vel": 127, "ch": 0}, {"start": 260096, "end": 260350, "note": 69, "vel": 127, "ch": 0}, {"start": 260352, "end": 260607, "note": 67, "vel": 127, "ch": 0}, {"start": 260609, "end": 260862, "note": 66, "vel": 127, "ch": 0}, {"start": 260864, "end": 261117, "note": 64, "vel": 127, "ch": 0}, {"start": 261119, "end": 261374, "note": 67, "vel": 127, "ch": 0}, {"start": 261376, "end": 261629, "note": 66, "vel": 127, "ch": 0}, {"start": 261631, "end": 261886, "note": 64, "vel": 127, "ch": 0}, {"start": 261888, "end": 262142, "note": 62, "vel": 127, "ch": 0}, {"start": 258048, "end": 262142, "note": 43, "vel": 102, "ch": 1}, {"start": 258048, "end": 262142, "note": 50, "vel": 102, "ch": 1}, {"start": 258048, "end": 262142, "note": 59, "vel": 102, "ch": 1}, {"start": 258048, "end": 262142, "note": 67, "vel": 102, "ch": 1}, {"start": 258048, "end": 262142, "note": 43, "vel": 102, "ch": 2}]}